<svg xmlns="http://www.w3.org/2000/svg" xmlns:xlink="http://www.w3.org/1999/xlink" viewBox="0 0 1404.68 364.27"><defs><style>.cls-1,.cls-2,.cls-3{stroke:#000;stroke-miterlimit:10;stroke-width:0.5px;}.cls-2{fill:url(#radial-gradient);}.cls-3{fill:url(#radial-gradient-2);}</style><radialGradient id="radial-gradient" cx="-48.15" cy="-122.57" r="2.46" gradientTransform="translate(-0.05 0.11) scale(1 1.01)" gradientUnits="userSpaceOnUse"><stop offset="0.78" stop-color="#fff" stop-opacity="0"/><stop offset="0.79" stop-color="#fff" stop-opacity="0.01"/><stop offset="0.8" stop-color="#fff" stop-opacity="0.04"/><stop offset="0.8" stop-color="#fff" stop-opacity="0.1"/><stop offset="0.81" stop-color="#fff" stop-opacity="0.18"/><stop offset="0.81" stop-color="#fff" stop-opacity="0.28"/><stop offset="0.81" stop-color="#fff" stop-opacity="0.4"/><stop offset="0.82" stop-color="#fff" stop-opacity="0.5"/><stop offset="0.86" stop-color="#dbc01f"/></radialGradient><radialGradient id="radial-gradient-2" cx="-214.21" cy="85.47" r="76.32" gradientTransform="matrix(1, 0, 0, 1, 0, 0)" xlink:href="#radial-gradient"/></defs><g id="Layer_2" data-name="Layer 2"><g id="Layer_1-2" data-name="Layer 1"><path class="cls-1" d="M345,115.31q13.11,0,23.74-10t10.63-23.16a21.08,21.08,0,0,0-6.55-15.68,21.78,21.78,0,0,0-15.77-6.41q-13.11,0-23.74,10T322.69,93.22a21.23,21.23,0,0,0,6.38,15.86A21.88,21.88,0,0,0,345,115.31Z"/><path class="cls-1" d="M1398.06,204.75q-3.55,0-10.1,6.95t-12.58,8q-1.43-14.6-10.28-39.55-3.18-8.9-3.19-13.18,0-7.83,8.86-7.84a34.54,34.54,0,0,1,6.38.89,33.68,33.68,0,0,0,6.38.89,15.08,15.08,0,0,0,11.34-4.81,16.16,16.16,0,0,0,4.6-11.58q0-17.44-20.55-17.46-21.26,0-45.71,20.31-23.36,19.41-53.88,57.78c-.11.11-.23.19-.33.3q-25.86,31.36-32.24,31.36-2.13,0-2.13-2.85a15.47,15.47,0,0,1,.71-3.92,201.9,201.9,0,0,1,9.92-25.66q3.54-8.19,12-25.3,11-22.08,11-28.86a15.88,15.88,0,0,0-4.42-11.4,15.27,15.27,0,0,0-11.52-4.63q-23.38,0-78.31,57.72,13.47-24.22,13.47-33.14,0-8.19-6.2-17.63t-14-9.45c-4,0-8,2.27-12,6.77q-19.48,24.24-29,36.7-19.67,24.71-29.91,36.81c-1.12,1-2.3,2.23-3.57,3.64q-7.26,8-15.41,8-3.55,0-5-1.42,31.89-47.75,31.89-71.62,0-16-13.11-16-12.41,0-25.52,13.53a85.12,85.12,0,0,0-17,25.3,81.2,81.2,0,0,0-7.44,33.14q0,13.18,4.6,21-10.27,12.12-12.4,13.54-8.16,7.49-16.3,7.49-11.68,0-12.4-12.12,29.76-34.92,29.76-57,0-12.1-9.92-12.11-18.06,0-32.24,29.21-9.93,20.31-9.92,39.2-7.8,7.13-13.47,7.12-6,0-6-6.41a24.1,24.1,0,0,1,1.42-7.48A199,199,0,0,1,987,197.62q4.61-8.9,16.3-30.28Q1009,157,1009,149.16q0-15-15.59-15-10.63,0-21.61,8.55-20.91,20.31-30.12,31.71Q921.83,197.85,912,210.05c-7.18,7.84-13.6,11.8-19.25,11.8a13.2,13.2,0,0,1-4.25-.71q18.78-31.35,18.78-56.3,0-31.35-28.7-31.35-32.25,0-65.9,37Q788.27,199.4,776.57,214l-.05.09A138.13,138.13,0,0,1,767,224.7a160.26,160.26,0,0,1-26.22,20.67q33.3-68.76,40.39-84.45,4.61-10.32,4.61-16.75,0-8.19-6-17.45-7.1-10.34-14.89-10.34-6,0-12.4,12.12Q748.23,137,744,146q-5-11.4-22.32-11.4-28.71,0-66.62,38.12-21.91,22-35.08,39.37c-4,4.73-8,9.47-12,14.08q-9.92,11-13.82,11-2.83,0-2.83-3.2a12.3,12.3,0,0,1,.71-3.92,189.58,189.58,0,0,1,10.27-26q2.47-5.35,12-24.95,10.63-21.37,10.63-28.86,0-16.38-15.94-16.39-13.83,0-40,21.38a330.28,330.28,0,0,0-35.08,33.14q28.7-53.09,42.87-85.52,3.9-8.9,3.9-15.67,0-8.57-6.38-19.78T559.73,56.17q-6.37,0-11.69,9.62-32.25,59.85-57,95.49-24.8,33.5-37.91,50.24c-.31.38-.54.74-.8,1.11-4,4-7.89,6.42-11.6,7.08q-1.43-14.6-10.28-39.55-3.18-8.9-3.18-13.18,0-7.83,8.85-7.84a34.54,34.54,0,0,1,6.38.89,33.78,33.78,0,0,0,6.38.89,15.08,15.08,0,0,0,11.34-4.81,16.12,16.12,0,0,0,4.6-11.58q0-17.44-20.55-17.46-21.25,0-45.71,20.31-24.18,20.1-56,60.45c-16.81,19.27-27.12,29-30.78,29q-2.13,0-2.13-2.85a15,15,0,0,1,.71-3.92q13.81-33.86,22.32-50.24,4.61-9.63,4.61-16,0-8.55-7.8-19.24t-15.94-10.69q-5.67,0-11,6.42Q282.65,165.55,273.08,178q-14.54,18.89-27.63,34.91c-.08.1-.14.21-.22.31q-20.47,23.92-26.36,23.92c-2.12,0-3.18-1.18-3.18-3.56a16.15,16.15,0,0,1,.7-4.28q2.84-10.32,22-43.11,17.71-30.28,17.72-37.77a14.11,14.11,0,0,0-3.72-9.8,12.17,12.17,0,0,0-9.39-4.09q-7.09,0-20,6.59t-20,6.59A19.76,19.76,0,0,1,199,147a29.94,29.94,0,0,0,6-18.17q0-13.91-12.76-13.9-10.63,0-19.31,10.69t-8.68,21.73q0,11.06,7.79,15-22.75,29.13-36.1,45.79c-16.64,19.06-26.86,28.68-30.51,28.68q-2.13,0-2.13-2.85a15.47,15.47,0,0,1,.71-3.92q13.83-33.86,22.33-50.24,4.59-9.63,4.6-16,0-8.55-7.79-19.24t-15.95-10.69q-5.67,0-11,6.42Q76.44,165.55,66.87,178q-14.54,18.89-27.64,34.91a11.47,11.47,0,0,0-2.83,7.13q0,7.13,7.08,7.13a7.73,7.73,0,0,0,6-2.85q19.49-24.24,28-35.64l1.06,1.43q-25.86,45.62-25.86,62,0,20.67,20.55,20.66a42.65,42.65,0,0,0,22.68-6.05Q116,254.44,140.3,226.42A12,12,0,0,0,142,224.7q9.56-11.4,17.36-21.38,18.78-23.87,28.7-36.7a20.77,20.77,0,0,0,4.61.36,42.72,42.72,0,0,0,4.78-.36,43.48,43.48,0,0,1,4.43-.35c3.3,0,5,1.07,5,3.2s-7.33,13.19-22,33.14-22,35.4-22,46.32q0,23.88,24.8,23.87a43.31,43.31,0,0,0,22-5.7q23.47-13.64,47.9-45c12-15,20.76-26.11,26.15-33.35l1.07,1.43q-25.87,45.62-25.87,62,0,20.67,20.55,20.66a42.65,42.65,0,0,0,22.68-6.05q22.67-13.9,50.67-47.75c.1-.12.16-.23.26-.35,6.61-7.87,11.89-14.23,15.68-18.89q19.85-23.16,36.5-37.06-3.9,5-5,27.08-1.43,29.22-1.78,30.65a142.25,142.25,0,0,0-20.9-2.14q-12,0-20.37,6.59t-8.33,18.71q0,16,13.82,23.87,11.32,6.42,28.7,6.41a50.88,50.88,0,0,0,30.65-9.62q13.28-9.62,17.89-27.08a38.92,38.92,0,0,0,16.3-7.12c6.23-4.62,10.25-9.07,12.16-13.34q16.59-20.75,25-32.27l1.07,1.07q-23.39,46.32-35.08,69.84a17.74,17.74,0,0,0-2.13,7.83q0,9.63,13.47,9.62,15.94,0,29.41-18.17,12.39-16.74,31.89-39.9,27.27-31.36,33.3-31.36,2.13,0,2.13,2.49,0,1.44-13.64,27.8t-13.64,38.48q0,20.31,20.55,20.31a47.26,47.26,0,0,0,22.67-5.7q14.53-7.49,31.89-26,4.38-4.59,9.2-10.21a42.86,42.86,0,0,0-2.82,15.55q0,26.37,23,26.37,16.65,0,46.77-21.38L680.2,274.94q-37.56,14.25-52.09,22.45-33.3,19.25-33.3,40.62,0,12.83,11,19.95,9.57,6.06,23,6.06,35.08,0,62.36-32.42,15.24-17.82,38.27-63.07,25.15-11.4,42.17-27.08c3.68-3.47,7.27-7.13,10.78-10.93a55,55,0,0,0-.51,7q0,15.69,8.5,25.65t24.1,10q32.94,0,60.94-33.49a44.13,44.13,0,0,0,9.21,1.07c13.23,0,24.35-4.92,33.41-14.59a8.4,8.4,0,0,0,1.67-1.45l14.17-17.46q12.76-16,18.07-22.45l.71,1.07q-24.79,39.55-24.8,61.29,0,26,26.22,26,17.35,0,41.46-18.88,7.08,18.53,24.44,18.52,13.83,0,28-11.4,7.08-5.68,22-22.8a34.82,34.82,0,0,0,12.75,2.49c13.17,0,24.42-6.12,33.8-18.22q20.29-24.84,29.62-36.65l1.42,1.07q-23,45.26-35.08,68.06c-1.66,3.32-2.48,5.94-2.48,7.83q0,9.63,14.17,9.62,15.94,0,29.41-18.17,12-16.38,31.89-39.55,27.29-31.35,33.31-31.35c1.41,0,2.12.83,2.12,2.49q0,1.07-13.64,27.44t-13.64,38.83q0,20.31,20.55,20.31a43.84,43.84,0,0,0,22.68-6.05q9.21-4.28,25.51-20a227.32,227.32,0,0,0,23.3-25.61q11.47-13.67,17.8-21.42,19.85-23.16,36.5-37.06-3.92,5-5,27.08-1.41,29.22-1.77,30.65a142.25,142.25,0,0,0-20.9-2.14q-12.06,0-20.37,6.59t-8.33,18.71q0,16,13.82,23.87,11.33,6.42,28.7,6.41a50.88,50.88,0,0,0,30.65-9.62q13.28-9.62,17.89-27.08a38.92,38.92,0,0,0,16.3-7.12q13.46-10,13.46-18.89Q1404.43,204.76,1398.06,204.75ZM374.78,250.36q-10.29,0-10.28-8.91t11-8.91q2.83,0,18.78,2.85Q387.17,250.36,374.78,250.36Zm281.33,73.75q-12.42,21.74-21.62,21.74-6.37,0-6.38-7.48,0-21.39,42.88-44.54Q657.88,321.27,656.11,324.11ZM711.91,209q-20.73,28.88-32.42,28.87-3.9,0-3.9-4.64,0-13.17,18.78-42.4,19.14-30.63,31.54-31,6.72,0,6.73,7.84Q732.64,180.17,711.91,209Zm162.81-7.48a10.76,10.76,0,0,0-8.86-4.63q-12.75,0-12.75,15.68a24.62,24.62,0,0,0,6,16.39q-12,17.1-20.9,17.1-6.39,0-6.38-7.48,0-10,12.76-37.06,21.6-46,36.14-46c3.77,0,5.67,3,5.67,8.9Q886.42,178,874.72,201.54Zm434.75,48.82q-10.28,0-10.27-8.91t11-8.91q2.83,0,18.78,2.85Q1321.87,250.36,1309.47,250.36Z"/><path class="cls-2" d="M127.77,128.41v.15c21.54-6.2,36.05-15.29,34.82-23C161,95.57,133.3,91.74,100.75,97s-57.63,17.68-56,27.7c1.23,7.66,17.75,11.69,40,10.8l0-.15c-16.17.38-27.77-2.34-28.61-7.54-1.17-7.35,19.5-16.81,46.19-21.14s49.28-1.9,50.46,5.45C153.6,117.36,143.35,123.65,127.77,128.41Z"/><path class="cls-3" d="M98.49,86.33c24.89-4,48.29-1.88,65.85,4.84,3.26-15.44,6.93-30.78,11.15-46a2.7,2.7,0,0,1,2.41-2.37c5.29-1,7.34-3.57,7-8.91a8.79,8.79,0,0,0-5.12-7.47c-3-1.51-5.69-.77-8.16,1.21-3.27,2.6-4,5.84-2.44,10,.34.9,1.18,1.78.11,3-4.55,5.11-9.5,9.76-15.6,12.87-5.82,3-10.94.84-13.5-5.19a63.35,63.35,0,0,1-3-10.25c-.77-3.24-1.15-6.34,2.75-8.37,2.86-1.5,3.75-4.4,2.81-7.62a8.24,8.24,0,0,0-6.74-6,7.31,7.31,0,0,0-7.62,2.74c-2.5,3.26-2.29,7.06.57,11,.47.62,1.34,1.09.85,2.2C127,38.18,123.59,44,118,48.08c-3.44,2.54-7,2.28-10.52-.31a28.11,28.11,0,0,1-7.32-8.93c-3.85-6.71-7-13.78-10.43-20.71-.75-1.51-.8-2.61.43-3.91A9.82,9.82,0,0,0,92,10.9a8,8,0,0,0-2.61-9.17c-2.1-1.65-6.89-2.08-9-.47-5.55,4.2-5.51,11.48.49,14.93C82.26,17,83,17.88,83,19.47c-.07,5.84,0,11.69-1,17.48-.94,5.46-1.86,10.94-4.35,15.95-2.21,4.45-6.19,6.44-10.81,4.84-6-2.08-11.57-5.07-15.73-10.18a5.47,5.47,0,0,1-1.21-5.21c.8-3.46.25-6.87-2.77-9.25a7.38,7.38,0,0,0-8.64-.54,9.08,9.08,0,0,0-3.93,9c.62,3.42,3,6.16,6.61,6.49,3.26.29,3.89,2.22,4.33,4.72.15.86.28,1.72.48,3,.87,2.9.58,6.25.41,9.57-.31,6-4,9.51-10,9.32-7.2-.23-13.56-3.28-19.85-6.45-1.21-.61-1-1.65-1-2.68A8.29,8.29,0,0,0,11,57.81a7.17,7.17,0,0,0-8.68,1.44A8,8,0,0,0,1,68.06C2.7,71.51,6.1,73.8,9.37,73c2.52-.62,3.48.55,4.63,2.32C21.87,87.47,29.58,99.71,37.23,112,51.8,100,73.45,90.4,98.49,86.33Z"/></g></g></svg>