<svg xmlns="http://www.w3.org/2000/svg" xmlns:xlink="http://www.w3.org/1999/xlink" viewBox="0 0 342.91 233.65"><defs><style>.cls-1{fill:url(#Orange_Yellow);}</style><linearGradient id="Orange_Yellow" y1="116.82" x2="342.91" y2="116.82" gradientUnits="userSpaceOnUse"><stop offset="0" stop-color="#fff33b"/><stop offset="0.04" stop-color="#fee72e"/><stop offset="0.12" stop-color="#fed51b"/><stop offset="0.2" stop-color="#fdca10"/><stop offset="0.28" stop-color="#fdc70c"/><stop offset="0.67" stop-color="#f3903f"/><stop offset="0.89" stop-color="#ed683c"/><stop offset="1" stop-color="#e93e3a"/></linearGradient></defs><g id="Layer_2" data-name="Layer 2"><g id="Layer_1-2" data-name="Layer 1"><path class="cls-1" d="M342.83,90.1c-.92,9.71-5.38,13.74-15.23,14-2.85.07-4,1.19-5,3.54-17.86,38.68-33.71,78.19-48.05,118.3-1.36,3.82-2.56,5.49-7,4.52a341.57,341.57,0,0,0-51.85-6.73,574.4,574.4,0,0,0-69.06-.53c-12.57.74-25.06,1.89-37.51,3.64a302.73,302.73,0,0,0-32.57,6.53c-2.9.74-4,.09-5.1-2.58Q47.46,172.4,21.93,114.69c-1.56-3.52-2.95-5.9-7.7-5.53C8.1,109.65,2.62,104.53.59,97.85c-1.7-5.61.38-12.2,4.9-15.45,5-3.57,11.23-3.81,16.11-.07a15.1,15.1,0,0,1,6,15.26c-.3,1.85-1,3.65,1,5.09,10.45,7.55,21.07,14.88,34,17.39,10.74,2.08,18.51-3.16,20.8-13.83,1.27-5.91,2.77-11.86,2-17.31,0-2.3,0-3.9,0-5.5-.06-4.61-.65-8.27-6.45-9.74C72.49,72,69.06,66.44,68.93,60.1A16.5,16.5,0,0,1,78.67,45a13.51,13.51,0,0,1,15.44,3.49c4.77,5.15,4.78,11.45,2.32,17.43a9.93,9.93,0,0,0,.69,9.72c6,10.4,15.23,17.4,25.48,22.89,7.88,4.22,15.66,1.81,20.94-5.55,6-8.29,9.2-17.86,12.48-27.4,3.48-10.12,5-20.66,6.83-31.14.5-2.84-.62-4.64-3-6.52C150,20,152.07,6.85,163.34.93c4.3-2.27,12.84-.1,16.16,3.49a14.55,14.55,0,0,1,2.06,17.23,17.93,17.93,0,0,1-4.24,5.43c-2.6,2-2.83,4-1.92,6.9,4.17,13.46,7.83,27.09,12.84,40.28,2.53,6.65,5.6,13,10.64,18.18,5.54,5.68,12,7.19,18.93,3.64,11.29-5.75,19.15-15.17,26-25.56,1.21-1.84-.23-3-.88-4.21-4-7.81-3.32-14.72,2.15-19.84,4.29-4,9.47-4.56,14.56-2.71,5.71,2.08,9.63,6.32,10.44,12.69.78,6.06-1.67,11-7.28,12.87-7.63,2.52-7.86,8.2-7.4,14.25.48,6.46.9,13,2.47,19.3,2.87,11.58,11.52,16.92,22.88,13.27,11.93-3.82,22.23-10.72,31.93-18.58,2.3-1.87,1-3.7.68-5.41-1.6-7.84.64-13.45,7.3-17.18,5-2.82,10.17-3.37,15.1.22S343.41,84,342.83,90.1Z"/></g></g></svg>